Coordinates
version=1
nRows=26
nColumns=22
inDegrees=yes

Units are S.I. units (second, meters, Newtons, ...)
If the header above contains a line with 'inDegrees', this indicates whether rotational values are in degrees (yes) or radians (no).

endheader
time	pelvis_tilt	pelvis_list	pelvis_rotation	pelvis_tx	pelvis_ty	pelvis_tz	hip_flexion_r	hip_adduction_r	hip_rotation_r	knee_angle_r	ankle_angle_r	subtalar_angle_r	hip_flexion_l	hip_adduction_l	hip_rotation_l	knee_angle_l	ankle_angle_l	subtalar_angle_l	lumbar_extension	lumbar_bending	lumbar_rotation
      2.20000000	     -5.70378275	     -1.49400106	     99.74086881	     -0.69897694	      1.07110391	      0.51437779	     21.19423467	      0.89385984	      8.39074757	    -62.28033828	      6.01555201	      1.69800924	      5.74864739	      2.69417447	     -1.13372127	    -14.96225973	     10.23089769	      0.88776744	     -6.49290941	     -7.69779295	     -4.63692557
      2.21000000	     -5.54013748	     -1.45271988	     99.25537260	     -0.70122187	      1.07135564	      0.50817689	     22.11130788	      0.95405077	      7.65140483	    -61.64624237	      6.30446569	      1.38996708	      5.15400013	      2.57496406	     -1.63212080	    -14.63312331	     10.51473815	      0.85619416	     -6.58309588	     -7.49371272	     -4.81564508
      2.22000000	     -5.37981136	     -1.42300526	     98.78707465	     -0.70342916	      1.07149467	      0.50193514	     22.98652528	      0.97973221	      6.88575160	    -60.87141361	      6.61459611	      1.17312848	      4.57882386	      2.46739890	     -2.10732557	    -14.32537805	     10.82197947	      0.84305890	     -6.66120142	     -7.29276212	     -4.99418802
      2.23000000	     -5.25147126	     -1.41447047	     98.33760120	     -0.70562999	      1.07151418	      0.49563804	     23.82560812	      0.93437110	      6.09969353	    -59.96822953	      6.99417160	      1.07946606	      4.02880908	      2.40422634	     -2.56561618	    -14.03997136	     11.12391725	      0.82951227	     -6.71674304	     -7.12587232	     -5.16434316
      2.24000000	     -5.09612014	     -1.39458173	     97.90966626	     -0.70779687	      1.07147038	      0.48930727	     24.60134477	      0.89178456	      5.27808227	    -58.93216412	      7.33690926	      0.90318098	      3.47752815	      2.31527586	     -3.00807576	    -13.77006675	     11.46471204	      0.84317300	     -6.78515661	     -6.91458875	     -5.33575828
      2.25000000	     -5.00922731	     -1.41264767	     97.48452395	     -0.70993898	      1.07129298	      0.48289512	     25.35710305	      0.75720174	      4.48960426	    -57.79591924	      7.75901914	      0.84707993	      2.95179076	      2.31133761	     -3.45062555	    -13.49800931	     11.75423728	      0.83547478	     -6.81014636	     -6.78033358	     -5.51871472
      2.26000000	     -4.87858967	     -1.38746035	     97.09942683	     -0.71206619	      1.07111633	      0.47640601	     26.00486019	      0.63379825	      3.63016602	    -56.52451118	      8.09924293	      0.65997355	      2.39413918	      2.26116837	     -3.83835930	    -13.25000548	     12.10496158	      0.85795443	     -6.87696033	     -6.57847866	     -5.69077321
      2.27000000	     -4.80509475	     -1.38873598	     96.71428851	     -0.71415356	      1.07081197	      0.46982972	     26.62698394	      0.43623751	      2.80225886	    -55.17341132	      8.45996021	      0.52392477	      1.85061617	      2.28152024	     -4.21852122	    -12.99692195	     12.41547801	      0.85361037	     -6.91104959	     -6.43745537	     -5.85431193
      2.28000000	     -4.74118780	     -1.39052685	     96.34712322	     -0.71619639	      1.07043142	      0.46316626	     27.19206114	      0.21147631	      1.97007717	    -53.72812953	      8.77353457	      0.37164588	      1.30671677	      2.31713470	     -4.56725783	    -12.75093841	     12.71955463	      0.83208025	     -6.93898268	     -6.29795097	     -6.02498812
      2.29000000	     -4.68877912	     -1.38301932	     95.99764194	     -0.71818270	      1.06998215	      0.45638772	     27.68858326	     -0.04241000	      1.12266151	    -52.19638436	      9.03285577	      0.17826554	      0.75025470	      2.36738929	     -4.88263795	    -12.51300831	     13.01629488	      0.79761046	     -6.96743361	     -6.16515130	     -6.19999153
      2.30000000	     -4.64935159	     -1.36139106	     95.66824997	     -0.72010755	      1.06946989	      0.44948850	     28.11008134	     -0.32521407	      0.24945802	    -50.58265150	      9.23066917	     -0.06405555	      0.17695043	      2.43242496	     -5.17350273	    -12.28340580	     13.29876656	      0.75310880	     -7.00363177	     -6.04065444	     -6.36808863
      2.31000000	     -4.61302567	     -1.34299814	     95.36768020	     -0.72195863	      1.06886019	      0.44246940	     28.47359593	     -0.62029927	     -0.64234092	    -48.89022861	      9.37417626	     -0.28963679	     -0.39289308	      2.50034188	     -5.43818809	    -12.06395367	     13.61127982	      0.69664946	     -7.02501302	     -5.91241095	     -6.58393069
      2.32000000	     -4.58959609	     -1.28355810	     95.08626452	     -0.72371735	      1.06822461	      0.43530729	     28.73126910	     -0.93953053	     -1.58911252	    -47.12225639	      9.44789344	     -0.59935801	     -1.01096993	      2.57593825	     -5.68506927	    -11.85031802	     13.89054626	      0.63446795	     -7.08318442	     -5.79864546	     -6.77154529
      2.33000000	     -4.56392982	     -1.23204348	     94.84363912	     -0.72541795	      1.06748673	      0.42802221	     28.93533077	     -1.26680666	     -2.58787311	    -45.28525048	      9.46982593	     -0.86792139	     -1.61800291	      2.64669240	     -5.90343747	    -11.64973869	     14.20050956	      0.56704867	     -7.12200799	     -5.67651432	     -7.00148885
      2.34000000	     -4.55603372	     -1.14570412	     94.62119177	     -0.72702534	      1.06670560	      0.42060216	     29.04060796	     -1.60937202	     -3.63913402	    -43.38367927	      9.45281964	     -1.19193097	     -2.26145302	      2.72647405	     -6.13753817	    -11.46315017	     14.50151239	      0.49776805	     -7.19394765	     -5.57011513	     -7.24384032
      2.35000000	     -4.54052137	     -1.07255606	     94.44309102	     -0.72857794	      1.06581949	      0.41306455	     29.10122362	     -1.95577326	     -4.78586970	    -41.42435687	      9.37649743	     -1.46503166	     -2.88279706	      2.79290459	     -6.31931518	    -11.30008158	     14.82012726	      0.44039156	     -7.24202443	     -5.45264974	     -7.50117506
      2.36000000	     -4.52328443	     -1.00170382	     94.30013199	     -0.73005858	      1.06484474	      0.40540271	     29.10630046	     -2.30069095	     -6.02988060	    -39.41194982	      9.26348021	     -1.72816468	     -3.49103596	      2.84847934	     -6.47633320	    -11.16706030	     15.15392986	      0.39827987	     -7.27959301	     -5.33193285	     -7.76873524
      2.37000000	     -4.49326607	     -0.96162517	     94.19592061	     -0.73145863	      1.06373943	      0.39762036	     29.08950938	     -2.63127025	     -7.38719035	    -37.35501483	      9.12931499	     -1.93288696	     -4.05045947	      2.88191556	     -6.57750496	    -11.07421319	     15.51016647	      0.37410004	     -7.27194104	     -5.20232781	     -8.03535935
      2.38000000	     -4.45956024	     -0.89204739	     94.11624467	     -0.73274125	      1.06260299	      0.38971508	     28.98655764	     -2.93462166	     -8.83818582	    -35.25441699	      8.98129884	     -2.16573520	     -4.62290687	      2.89418708	     -6.68904152	    -11.02517808	     15.86737539	      0.37668345	     -7.29323411	     -5.06722205	     -8.31778196
      2.39000000	     -4.40318339	     -0.85192204	     94.06685659	     -0.73391180	      1.06134386	      0.38171440	     28.86774702	     -3.19085189	    -10.37939033	    -33.12209796	      8.84140617	     -2.33645867	     -5.13349879	      2.86983996	     -6.76201009	    -11.04054932	     16.25365118	      0.39928279	     -7.27424763	     -4.91177606	     -8.59525338
      2.40000000	     -4.31877227	     -0.83369643	     94.04292249	     -0.73493376	      1.05998148	      0.37363040	     28.72736138	     -3.38257776	    -11.99546606	    -30.96274427	      8.72439497	     -2.44771174	     -5.58292027	      2.79942427	     -6.81100635	    -11.13306447	     16.66492706	      0.43727382	     -7.22606343	     -4.73521958	     -8.85425297
      2.41000000	     -4.20690151	     -0.80443043	     94.03245157	     -0.73578871	      1.05857623	      0.36543024	     28.52946885	     -3.49431404	    -13.64969789	    -28.77898266	      8.65426479	     -2.51592534	     -6.01405049	      2.68107282	     -6.87482885	    -11.28947697	     17.08056474	      0.50590675	     -7.18297188	     -4.53109352	     -9.11907237
      2.42000000	     -4.06428717	     -0.80604296	     94.03443050	     -0.73645148	      1.05707080	      0.35715392	     28.32743429	     -3.51936516	    -15.31143804	    -26.58421663	      8.63366562	     -2.49210300	     -6.37513646	      2.51466250	     -6.91651061	    -11.52169169	     17.51677062	      0.58591875	     -7.10157808	     -4.30695063	     -9.35080872
      2.43000000	     -3.89117579	     -0.81835757	     94.04232345	     -0.73690557	      1.05550703	      0.34879528	     28.10020351	     -3.45114308	    -16.95108367	    -24.38405223	      8.67224814	     -2.37629419	     -6.68698341	      2.29763127	     -6.95715114	    -11.83161353	     17.95625020	      0.68629301	     -7.00504579	     -4.06159685	     -9.54965226
      2.44000000	     -3.69415017	     -0.84275522	     94.05353127	     -0.73715754	      1.05389536	      0.34034131	     27.85080981	     -3.29648280	    -18.53946713	    -22.19210940	      8.76563573	     -2.16372323	     -6.95720413	      2.03914333	     -6.99732784	    -12.20380718	     18.38636056	      0.80787977	     -6.89296046	     -3.79954779	     -9.72751855
      2.45000000	     -3.48003880	     -0.87402692	     94.05969538	     -0.73719208	      1.05225170	      0.33177332	     27.57638059	     -3.05996044	    -20.04290516	    -20.02633058	      8.91417525	     -1.86727669	     -7.19709839	      1.74646891	     -7.04588688	    -12.63090171	     18.79970830	      0.95466418	     -6.76834110	     -3.53083166	     -9.88227195
